<mxfile host="app.diagrams.net" modified="2022-06-09T19:56:35.450Z" agent="5.0 (Windows NT 10.0; Win64; x64) AppleWebKit/537.36 (KHTML, like Gecko) Chrome/102.0.5005.63 Safari/537.36" etag="LanbVrSsPVMAAk0zPojp" version="19.0.3" type="github">
  <diagram id="SmMN4gRIaJLHkw_0ABBP" name="Page-1">
    <mxGraphModel dx="942" dy="652" grid="1" gridSize="10" guides="1" tooltips="1" connect="1" arrows="1" fold="1" page="1" pageScale="1" pageWidth="827" pageHeight="1169" math="0" shadow="0">
      <root>
        <mxCell id="0" />
        <mxCell id="1" parent="0" />
      </root>
    </mxGraphModel>
  </diagram>
</mxfile>
